HIERARCHY
ROOT Hips
{
	OFFSET 0.000000 0.000000 0.000000
	CHANNELS 6 Xposition Yposition Zposition Zrotation Yrotation Xrotation 
	JOINT LHipJoint
	{
		OFFSET 0.000000 0.000000 0.000000
		CHANNELS 3 Zrotation Yrotation Xrotation
		JOINT LeftUpLeg
		{
			OFFSET 1.363060 -1.794630 0.839290
			CHANNELS 3 Zrotation Yrotation Xrotation
			JOINT LeftLeg
			{
				OFFSET 2.448110 -6.726130 0.000000
				CHANNELS 3 Zrotation Yrotation Xrotation
				JOINT LeftFoot
				{
					OFFSET 2.562200 -7.039590 0.000000
					CHANNELS 3 Zrotation Yrotation Xrotation
					JOINT LeftToeBase
					{
						OFFSET 0.157640 -0.433110 2.322550
						CHANNELS 3 Zrotation Yrotation Xrotation
						End Site
						{
							OFFSET 0.000000 0.000000 0.000000
						}
					}
				}
			}
		}
	}
	JOINT RHipJoint
	{
		OFFSET 0.000000 0.000000 0.000000
		CHANNELS 3 Zrotation Yrotation Xrotation
		JOINT RightUpLeg
		{
			OFFSET -1.305520 -1.794630 0.839290
			CHANNELS 3 Zrotation Yrotation Xrotation
			JOINT RightLeg
			{
				OFFSET -2.542530 -6.985550 0.000000
				CHANNELS 3 Zrotation Yrotation Xrotation
				JOINT RightFoot
				{
					OFFSET -2.568260 -7.056230 0.000000
					CHANNELS 3 Zrotation Yrotation Xrotation
					JOINT RightToeBase
					{
						OFFSET -0.164730 -0.452590 2.363150
						CHANNELS 3 Zrotation Yrotation Xrotation
						End Site
						{
							OFFSET 0.000000 0.000000 0.000000
						}
					}
				}
			}
		}
	}
	JOINT LowerBack
	{
		OFFSET 0.000000 0.000000 0.000000
		CHANNELS 3 Zrotation Yrotation Xrotation
		JOINT Spine
		{
			OFFSET 0.028270 2.035590 -0.193380
			CHANNELS 3 Zrotation Yrotation Xrotation
			JOINT Spine1
			{
				OFFSET 0.056720 2.048850 -0.042750
				CHANNELS 3 Zrotation Yrotation Xrotation
				JOINT Neck
				{
					OFFSET 0.000000 0.000000 0.000000
					CHANNELS 3 Zrotation Yrotation Xrotation
					JOINT Neck1
					{
						OFFSET -0.054170 1.746240 0.172020
						CHANNELS 3 Zrotation Yrotation Xrotation
						JOINT Head
						{
							OFFSET 0.104070 1.761360 -0.123970
							CHANNELS 3 Zrotation Yrotation Xrotation
							End Site
							{
								OFFSET 0.000000 0.000000 0.000000
							}
						}
					}
				}
				JOINT LeftShoulder
				{
					OFFSET 0.000000 0.000000 0.000000
					CHANNELS 3 Zrotation Yrotation Xrotation
					JOINT LeftArm
					{
						OFFSET 3.362410 1.200890 -0.311210
						CHANNELS 3 Zrotation Yrotation Xrotation
						JOINT LeftForeArm
						{
							OFFSET 4.983000 -0.000000 -0.000000
							CHANNELS 3 Zrotation Yrotation Xrotation
							JOINT LeftHand
							{
								OFFSET 3.483560 -0.000000 -0.000000
								CHANNELS 3 Zrotation Yrotation Xrotation
								JOINT LeftFingerBase
								{
									OFFSET 0.000000 0.000000 0.000000
									CHANNELS 3 Zrotation Yrotation Xrotation
									JOINT LeftHandIndex1
									{
										OFFSET 0.715260 -0.000000 -0.000000
										CHANNELS 3 Zrotation Yrotation Xrotation
										End Site
										{
											OFFSET 0.000000 0.000000 0.000000
										}
									}
								}
								JOINT LThumb
								{
									OFFSET 0.000000 0.000000 0.000000
									CHANNELS 3 Zrotation Yrotation Xrotation
									End Site
									{
										OFFSET 0.000000 0.000000 0.000000
									}
								}
							}
						}
					}
				}
				JOINT RightShoulder
				{
					OFFSET 0.000000 0.000000 0.000000
					CHANNELS 3 Zrotation Yrotation Xrotation
					JOINT RightArm
					{
						OFFSET -3.136600 1.374050 -0.404650
						CHANNELS 3 Zrotation Yrotation Xrotation
						JOINT RightForeArm
						{
							OFFSET -5.241900 -0.000000 -0.000000
							CHANNELS 3 Zrotation Yrotation Xrotation
							JOINT RightHand
							{
								OFFSET -3.444170 -0.000000 -0.000000
								CHANNELS 3 Zrotation Yrotation Xrotation
								JOINT RightFingerBase
								{
									OFFSET 0.000000 0.000000 0.000000
									CHANNELS 3 Zrotation Yrotation Xrotation
									JOINT RightHandIndex1
									{
										OFFSET -0.622530 -0.000000 -0.000000
										CHANNELS 3 Zrotation Yrotation Xrotation
										End Site
										{
											OFFSET 0.000000 0.000000 0.000000
										}
									}
								}
								JOINT RThumb
								{
									OFFSET 0.000000 0.000000 0.000000
									CHANNELS 3 Zrotation Yrotation Xrotation
									End Site
									{
										OFFSET 0.000000 0.000000 0.000000
									}
								}
							}
						}
					}
				}
			}
		}
	}
}
MOTION
Frames: 8
Frame Time: 0.008333
-11.850974 16.965640 -1.245374 176.488429 84.223287 177.834840 -10.952211 5.180545 0.429048 -0.369900 7.363626 12.361282 -0.662821 2.009134 22.157578 0.493161 -0.260328 12.019000 -0.212600 0.000000 -77.614200 9.166292 -0.711414 1.118835 10.887750 -4.090264 -25.274925 1.828767 -0.974968 21.771569 -1.854190 -8.707652 -3.933690 -1.197900 0.000000 -25.396400 2.217854 -5.108981 -2.947953 -0.056679 -5.412763 -2.530800 -6.247136 -5.291649 3.422852 11.435833 -22.175472 -11.302780 -2.595593 -0.154342 -0.911398 0.000000 0.000000 0.000000 2.770571 15.285167 1.235630 -32.905553 -3.835604 -1.021637 -1.779647 -51.864350 -0.009772 4.319922 -0.106434 -0.009443 -0.161263 0.166997 0.000000 0.000000 0.000000 0.000000 0.000000 0.000000 0.000000 19.432413 -20.662496 -0.507797 79.287890 -22.625573 -10.425738 4.074425 26.428443 0.006339 4.864339 2.747685 0.116186 0.078097 -0.021558 -0.000000 0.000000 0.000000 0.000000 0.000000 0.000000 0.000000 
-11.665510 16.981646 -1.217054 177.447284 84.160247 178.743922 -11.053939 5.230291 0.439112 0.169012 7.606986 11.506905 -0.490100 2.126155 24.156411 0.590144 -0.424103 13.995613 -0.353800 -0.000000 -77.265600 9.133247 -0.783040 1.144448 11.074494 -3.861745 -24.728399 1.811392 -1.001514 22.267681 -1.909116 -8.867632 -4.518464 -1.105100 -0.000000 -22.768000 2.352094 -5.066533 -3.020383 -0.032290 -5.380702 -2.557345 -6.253134 -5.260616 3.398159 11.455349 -22.122104 -11.267259 -2.616677 -0.157214 -0.900965 0.000000 0.000000 0.000000 2.769500 15.334444 1.174131 -33.722790 -3.238903 -0.826624 -1.780189 -52.306386 -0.009181 4.254073 -0.146814 -0.010728 -0.160312 0.163520 0.000000 0.000000 0.000000 0.000000 0.000000 0.000000 0.000000 19.463453 -20.538522 -0.526581 78.895364 -22.092356 -10.325235 4.073914 26.359678 0.006654 4.827858 2.873198 0.120496 0.078532 -0.022938 -0.000000 0.000000 0.000000 0.000000 0.000000 0.000000 0.000000 
-11.482561 16.997616 -1.188631 178.316794 84.114173 179.573296 -11.156857 5.260873 0.442632 0.665445 7.889639 10.538744 -0.318454 2.227333 26.272881 0.713405 -0.412417 15.914716 -0.449400 -0.000000 -75.942200 9.100778 -0.852009 1.163662 11.273605 -3.675947 -24.169050 1.803498 -1.020849 22.702806 -1.955459 -8.973150 -5.133153 -0.997800 0.000000 -20.370200 2.474753 -5.017477 -3.077222 -0.011940 -5.341036 -2.582255 -6.263986 -5.222197 3.369281 11.481047 -22.041213 -11.234961 -2.638908 -0.160097 -0.891570 0.000000 0.000000 0.000000 2.770618 15.366435 1.115490 -34.589814 -2.599299 -0.612179 -1.785090 -52.694040 -0.008649 4.214893 -0.179969 -0.011712 -0.159790 0.159468 -0.000000 0.000000 0.000000 0.000000 0.000000 0.000000 0.000000 19.492938 -20.382402 -0.538006 78.510630 -21.463504 -10.326432 4.070686 26.265509 0.007027 4.752652 3.014176 0.124408 0.079245 -0.024753 -0.000000 0.000000 0.000000 0.000000 0.000000 0.000000 0.000000 
-11.302460 17.013157 -1.160487 179.210050 84.078902 -179.563421 -11.263368 5.269816 0.437359 1.131104 8.212382 9.450713 -0.152725 2.313416 28.506148 0.858878 -0.194040 17.712256 -0.468100 -0.000001 -73.642500 9.064832 -0.918744 1.176330 11.495690 -3.527178 -23.582174 1.805772 -1.030206 23.056013 -1.997094 -9.043017 -5.780481 -0.878700 -0.000000 -18.145600 2.595762 -4.962627 -3.116047 0.007513 -5.295096 -2.604657 -6.275020 -5.177880 3.339287 11.507842 -21.953789 -11.210570 -2.657839 -0.162530 -0.884418 0.000000 0.000000 0.000000 2.774153 15.383307 1.059679 -35.518095 -1.930713 -0.390306 -1.795178 -53.013487 -0.008138 4.185796 -0.206651 -0.012397 -0.159488 0.154989 -0.000000 0.000000 0.000000 0.000000 0.000000 0.000000 0.000000 19.502429 -20.218829 -0.540893 78.126948 -20.716274 -10.344787 4.063014 26.125637 0.007476 4.603146 3.188339 0.127421 0.080462 -0.026985 -0.000000 0.000000 0.000000 0.000000 0.000000 0.000000 0.000000 
-11.125462 17.027941 -1.132490 -179.994432 84.050726 -178.787856 -11.365671 5.255286 0.423423 1.526790 8.544157 8.266529 0.000518 2.386581 30.827360 1.020606 0.300291 19.277311 -0.359500 -0.000000 -70.344699 9.029337 -0.981839 1.181070 11.721340 -3.422694 -22.968068 1.815673 -1.030449 23.327276 -2.034279 -9.080149 -6.448030 -0.751000 0.000001 -16.232600 2.703232 -4.901192 -3.134413 0.022675 -5.241198 -2.624133 -6.289590 -5.125854 3.305208 11.538807 -21.847207 -11.192200 -2.676791 -0.164822 -0.879068 0.000000 0.000000 0.000000 2.777076 15.379759 1.008241 -36.484331 -1.240454 -0.140781 -1.809868 -53.262871 -0.007657 4.174317 -0.226783 -0.012983 -0.159468 0.149958 0.000000 0.000000 0.000000 0.000000 0.000000 0.000000 0.000000 19.507916 -20.032921 -0.535816 77.755944 -19.882591 -10.422789 4.049854 25.985281 0.007948 4.394375 3.365832 0.128336 0.082018 -0.029586 -0.000000 0.000000 0.000000 0.000000 0.000000 0.000000 0.000000 
-10.951708 17.041730 -1.104876 -179.276681 84.025246 -178.079880 -11.462425 5.217508 0.399638 1.847516 8.875307 6.993089 0.138260 2.451038 33.215628 1.191635 1.096020 20.526767 -0.093700 -0.000000 -66.197801 8.993114 -1.041310 1.178815 11.948864 -3.355803 -22.322718 1.832301 -1.020887 23.509836 -2.070041 -9.099195 -7.134271 -0.617100 -0.000000 -14.608700 2.798900 -4.832937 -3.131954 0.034145 -5.179131 -2.640491 -6.306307 -5.065949 3.267417 11.571660 -21.727064 -11.180318 -2.694941 -0.166897 -0.875642 0.000000 0.000000 0.000000 2.778415 15.355007 0.961335 -37.487889 -0.538895 0.136612 -1.829444 -53.433646 -0.007185 4.172368 -0.240348 -0.013171 -0.159619 0.144394 -0.000000 0.000000 0.000000 0.000000 0.000000 0.000000 0.000000 19.505788 -19.831163 -0.522933 77.394872 -18.965865 -10.521702 4.030239 25.851583 0.008414 4.117964 3.541631 0.126352 0.083934 -0.032486 -0.000000 0.000000 0.000000 0.000000 0.000000 0.000000 0.000000 
-10.781246 17.054435 -1.077684 -178.674051 84.000779 -177.477378 -11.550460 5.157884 0.365297 2.079274 9.192666 5.645063 0.259524 2.511563 35.639038 1.365708 2.202940 21.389353 0.342800 -0.000000 -61.462800 8.957240 -1.096724 1.170458 12.168845 -3.320130 -21.647462 1.853784 -1.002227 23.605989 -2.106309 -9.110164 -7.833774 -0.478900 -0.000000 -13.279300 2.878880 -4.757062 -3.108346 0.040785 -5.107785 -2.653605 -6.326077 -4.997002 3.225015 11.606767 -21.586853 -11.172935 -2.713893 -0.168921 -0.873662 0.000000 0.000000 0.000000 2.777469 15.312042 0.919360 -38.521973 0.159031 0.449021 -1.854144 -53.516285 -0.006708 4.178474 -0.248265 -0.013260 -0.159914 0.138277 -0.000000 0.000000 0.000000 0.000000 0.000000 0.000000 0.000000 19.503236 -19.605972 -0.503714 77.043050 -17.986520 -10.636640 4.003753 25.750443 0.008834 3.784396 3.698322 0.121070 0.086092 -0.035598 -0.000000 0.000000 0.000000 0.000000 0.000000 0.000000 0.000000 
-10.613915 17.066102 -1.051207 -178.124549 83.972506 -176.915908 -11.630780 5.078854 0.321851 2.227266 9.485992 4.226201 0.365746 2.572498 38.069492 1.537980 3.592710 21.818467 0.932700 0.000000 -56.463600 8.918861 -1.148576 1.158725 12.386316 -3.301608 -20.943000 1.879568 -0.973765 23.610152 -2.146675 -9.130529 -8.544039 -0.338100 -0.000000 -12.153200 2.949507 -4.674018 -3.068224 0.044764 -5.028047 -2.664315 -6.345478 -4.920033 3.179233 11.638924 -21.439822 -11.169251 -2.731586 -0.170742 -0.872835 0.000000 0.000000 0.000000 2.772402 15.243981 0.881192 -39.595155 0.859407 0.783693 -1.884014 -53.509474 -0.006211 4.180319 -0.248905 -0.013052 -0.160172 0.131636 -0.000000 0.000000 0.000000 0.000000 0.000000 0.000000 0.000000 19.488499 -19.373168 -0.477988 76.690275 -16.936032 -10.702578 3.970647 25.666349 0.009185 3.384742 3.839011 0.112087 0.088563 -0.038819 -0.000000 0.000000 0.000000 0.000000 0.000000 0.000000 0.000000 
